<svg width="7" height="7" viewBox="0 0 7 7" fill="none" xmlns="http://www.w3.org/2000/svg">
<g clip-path="url(#clip0_205_66)">
<path d="M3.5 0.875C1.80862 0.875 0.4375 2.24612 0.4375 3.9375C0.4375 5.62887 1.80862 7 3.5 7C5.19137 7 6.5625 5.62887 6.5625 3.9375C6.5625 2.24612 5.19137 0.875 3.5 0.875ZM3.5 6.39844C2.14091 6.39844 1.03906 5.29659 1.03906 3.9375C1.03906 2.57841 2.14091 1.47656 3.5 1.47656C4.85909 1.47656 5.96094 2.57841 5.96094 3.9375C5.96094 5.29659 4.85909 6.39844 3.5 6.39844ZM6.39012 1.96306C6.49972 1.77122 6.5625 1.54919 6.5625 1.3125C6.5625 0.587563 5.97494 0 5.25 0C4.82737 0 4.45156 0.199719 4.21159 0.509906C5.11306 0.696063 5.88766 1.22894 6.39012 1.96306ZM2.78863 0.509906C2.54866 0.199719 2.17263 0 1.75 0C1.02506 0 0.4375 0.587563 0.4375 1.3125C0.4375 1.54919 0.500281 1.77144 0.609875 1.96306C1.11234 1.22894 1.88694 0.696063 2.78863 0.509906Z" fill="black"/>
<path d="M3.5 3.9375V2.1875H3.0625V4.375H4.8125V3.9375H3.5Z" fill="black"/>
</g>
<defs>
<clipPath id="clip0_205_66">
<rect width="7" height="7" fill="white"/>
</clipPath>
</defs>
</svg>
